<svg width="18" height="18" viewBox="0 0 18 18" fill="none" xmlns="http://www.w3.org/2000/svg">
<path d="M17.5035 4.99307L15.8828 6.61377C15.7175 6.779 15.4503 6.779 15.2851 6.61377L11.3828 2.71143C11.2175 2.54619 11.2175 2.279 11.3828 2.11377L13.0035 0.493066C13.6609 -0.164355 14.7296 -0.164355 15.3906 0.493066L17.5035 2.60596C18.1644 3.26338 18.1644 4.33213 17.5035 4.99307ZM9.99057 3.50596L0.758542 12.738L0.0132295 17.0095C-0.0887237 17.586 0.414011 18.0853 0.990573 17.9868L5.26206 17.238L14.4941 8.00596C14.6593 7.84072 14.6593 7.57354 14.4941 7.4083L10.5917 3.50596C10.423 3.34072 10.1558 3.34072 9.99057 3.50596V3.50596ZM4.36206 11.947C4.1687 11.7536 4.1687 11.4442 4.36206 11.2509L9.77612 5.83682C9.96948 5.64346 10.2789 5.64346 10.4722 5.83682C10.6656 6.03018 10.6656 6.33955 10.4722 6.53291L5.05815 11.947C4.86479 12.1403 4.55542 12.1403 4.36206 11.947V11.947ZM3.09292 14.9036H4.78042V16.1798L2.51284 16.5771L1.41948 15.4837L1.81675 13.2161H3.09292V14.9036Z" fill="#313A46"/>
</svg>
